# xmcd CD database file
#
# Track frame offsets:
#	150
#	21547
#	63495
#	78165
#	91101
#	104516
#	118039
#	131734
#	192370
#	208300
#	217584
#	246399
#	266881
#	283924
#	305558
#	335680
#
# Disc length: 4650 seconds
#
# Revision: 0
# Processed by: cddbd v1.5.2PL0 Copyright (c) Steve Scherf et al.
# Submitted via: CDex 1.70beta2
#
DISCID=fc122810
DTITLE=Various Artist - Les Trésors Du Jazz 1954 (3)
DYEAR=2006
DGENRE=Jazz
TTITLE0=Miles Davis, Solar
TTITLE1=Lionel Hampton, Love For Sale
TTITLE2=Jimmie Giuffre, Four Brothers
TTITLE3=Jimmie Giuffre, Sultana
TTITLE4=Art Tatum, Crazy Rhythm
TTITLE5=Oscar Peterson, Angel Eyes
TTITLE6=Count Basie, Sixteen Men Swingin'
TTITLE7=Miles Davis, Walkin'
TTITLE8=Bob Brookmeyer and Phil Urso, Wizzard's Gizzard
TTITLE9=René Thomas, Indiana
TTITLE10=Thelonious Monk, Locomotive
TTITLE11=Thelonious Monk, Smoke Gets Your Eyes
TTITLE12=George Wallington, Bumpkins
TTITLE13=Hubert Fol, Half Nelson
TTITLE14=Shelly Manne, Etude De Concert
TTITLE15=Art Blakey, Eleanor
EXTD=YEAR: 2006
EXTT0=
EXTT1=
EXTT2=
EXTT3=
EXTT4=
EXTT5=
EXTT6=
EXTT7=
EXTT8=
EXTT9=
EXTT10=
EXTT11=
EXTT12=
EXTT13=
EXTT14=
EXTT15=
PLAYORDER=
